<svg width="15" height="21" viewBox="0 0 15 21" fill="none" xmlns="http://www.w3.org/2000/svg">
<path d="M2.49976 0.5H8.74976V5.5C8.74976 6.20312 9.29663 6.75 9.99976 6.75H14.9998V18C14.9998 19.4062 13.8669 20.5 12.4998 20.5H2.49976C1.09351 20.5 -0.000244141 19.4062 -0.000244141 18V3C-0.000244141 1.63281 1.09351 0.5 2.49976 0.5ZM9.99976 0.5L14.9998 5.5H9.99976V0.5ZM10.0779 9.36719C9.76538 9.17188 9.37476 9.28906 9.21851 9.5625C9.02319 9.875 9.10132 10.2656 9.41382 10.4219C10.5076 11.0859 11.2498 12.2969 11.2498 13.625C11.2498 14.9922 10.5076 16.2031 9.41382 16.8672C9.10132 17.0234 9.02319 17.4141 9.21851 17.7266C9.37476 18 9.76538 18.1172 10.0779 17.9219C11.5232 17.0625 12.4998 15.4609 12.4998 13.625C12.4998 11.8281 11.5232 10.2266 10.0779 9.36719ZM6.48413 10.5781C6.24976 10.4609 5.97632 10.5391 5.78101 10.6953L4.41382 12.0625H3.12476C2.77319 12.0625 2.49976 12.375 2.49976 12.6875V14.5625C2.49976 14.9141 2.77319 15.1875 3.12476 15.1875H4.41382L5.78101 16.5938C5.97632 16.75 6.24976 16.8281 6.48413 16.7109C6.71851 16.6328 6.87476 16.3984 6.87476 16.125V11.125C6.87476 10.8906 6.71851 10.6562 6.48413 10.5781ZM8.47632 11.9453C8.20288 12.1797 8.16382 12.5703 8.39819 12.8047C8.59351 13.0391 8.71069 13.3125 8.71069 13.6641C8.71069 13.9766 8.59351 14.25 8.39819 14.4844C8.20288 14.7188 8.20288 15.1484 8.47632 15.3438C8.71069 15.5781 9.10132 15.5781 9.33569 15.3047C9.72632 14.875 9.99976 14.2891 9.99976 13.625C9.99976 13 9.72632 12.4141 9.33569 11.9844C9.10132 11.7109 8.71069 11.7109 8.47632 11.9453Z" fill="#BC6C25"/>
</svg>
