<svg width="23" height="21" viewBox="0 0 23 21" fill="none" xmlns="http://www.w3.org/2000/svg">
<path d="M1.5 0.5H2.75H12.75H14C14.6641 0.5 15.25 1.08594 15.25 1.75C15.25 2.45312 14.6641 3 14 3V3.42969C14 5.10938 13.3359 6.71094 12.1641 7.88281L9.50781 10.5L10.9141 11.9062C10.4844 12.8047 10.25 13.8203 10.25 14.875C10.25 17.2188 11.3828 19.2891 13.1406 20.5H12.75H2.75H1.5C0.796875 20.5 0.25 19.9531 0.25 19.25C0.25 18.5859 0.796875 18 1.5 18V17.5703C1.5 15.9297 2.125 14.3281 3.29688 13.1562L5.95312 10.5L3.29688 7.88281C2.125 6.71094 1.5 5.10938 1.5 3.42969V3C0.796875 3 0.25 2.45312 0.25 1.75C0.25 1.08594 0.796875 0.5 1.5 0.5ZM4 3.42969C4 4.17188 4.19531 4.91406 4.625 5.5H10.875C11.2656 4.91406 11.5 4.17188 11.5 3.42969V3H4V3.42969ZM22.75 14.875C22.75 18 20.2109 20.5 17.125 20.5C14 20.5 11.5 18 11.5 14.875C11.5 11.7891 14 9.25 17.125 9.25C20.2109 9.25 22.75 11.7891 22.75 14.875ZM17.125 11.75C16.7734 11.75 16.5 12.0625 16.5 12.375V14.875C16.5 15.2266 16.7734 15.5 17.125 15.5H19C19.3125 15.5 19.625 15.2266 19.625 14.875C19.625 14.5625 19.3125 14.25 19 14.25H17.75V12.375C17.75 12.0625 17.4375 11.75 17.125 11.75Z" fill="white"/>
<path d="M1.5 0.5H2.75H12.75H14C14.6641 0.5 15.25 1.08594 15.25 1.75C15.25 2.45312 14.6641 3 14 3V3.42969C14 5.10938 13.3359 6.71094 12.1641 7.88281L9.50781 10.5L10.9141 11.9062C10.4844 12.8047 10.25 13.8203 10.25 14.875C10.25 17.2188 11.3828 19.2891 13.1406 20.5H12.75H2.75H1.5C0.796875 20.5 0.25 19.9531 0.25 19.25C0.25 18.5859 0.796875 18 1.5 18V17.5703C1.5 15.9297 2.125 14.3281 3.29688 13.1562L5.95312 10.5L3.29688 7.88281C2.125 6.71094 1.5 5.10938 1.5 3.42969V3C0.796875 3 0.25 2.45312 0.25 1.75C0.25 1.08594 0.796875 0.5 1.5 0.5ZM4 3.42969C4 4.17188 4.19531 4.91406 4.625 5.5H10.875C11.2656 4.91406 11.5 4.17188 11.5 3.42969V3H4V3.42969ZM22.75 14.875C22.75 18 20.2109 20.5 17.125 20.5C14 20.5 11.5 18 11.5 14.875C11.5 11.7891 14 9.25 17.125 9.25C20.2109 9.25 22.75 11.7891 22.75 14.875ZM17.125 11.75C16.7734 11.75 16.5 12.0625 16.5 12.375V14.875C16.5 15.2266 16.7734 15.5 17.125 15.5H19C19.3125 15.5 19.625 15.2266 19.625 14.875C19.625 14.5625 19.3125 14.25 19 14.25H17.75V12.375C17.75 12.0625 17.4375 11.75 17.125 11.75Z" fill="white"/>
</svg>
